<?xml version="1.0" encoding="utf-8"?>
<!-- Generator: Adobe Illustrator 25.4.1, SVG Export Plug-In . SVG Version: 6.00 Build 0)  -->
<svg version="1.1" id="Capa_1" xmlns="http://www.w3.org/2000/svg" xmlns:xlink="http://www.w3.org/1999/xlink" x="0px" y="0px"
	 viewBox="0 0 319.9 276.27" style="enable-background:new 0 0 319.9 276.27;" xml:space="preserve">
<style type="text/css">
	.st0{fill:#1B3E69;}
	.st1{fill:#59C7D1;}
	.st2{fill:#FDD273;}
	.st3{fill:#FAE8B7;}
	.st4{fill:#FEFEFE;}
	.st5{fill:#FDFDFD;}
	.st6{fill:#F2FAFB;}
	.st7{fill:#CDC7A6;}
	.st8{fill:#16426A;}
	.st9{fill:#1B3D6D;}
</style>
<path class="st0" d="M146.88,173.43c-2.7,0.62-5.39,1.24-8.09,1.86c-1.45,1.41-3.13,0.73-4.73,0.47
	c-17.56-2.84-27.28-18.04-28.26-33.57c-1.41-22.28,9.31-38.92,26.08-52.24c5.48-4.35,11.54-7.9,18.24-10.18
	c5.5-2.1-0.01-3.65-0.29-5.45c-8.54-11.22-19.96-18.48-32.82-23.66c-4.96-2-5.47-1.21-5.15,4.2c0.74,12.55-4.21,20.46-14.5,23.9
	c-5.56,1.86-11.29,2.84-17.03,3.85c-8.44,1.49-15.43,4.66-18.93,13.43c-2.21,5.52-6.62,9.51-11.89,12.41
	c-1.17,0.64-2.35,1.25-3.54,1.86c-10.73,5.47-11.55,7.99-7.29,19.27c4.04,10.7,11.13,17.93,22.21,21.2
	c4.79,1.41,9.5,3.09,14.13,4.96c18.59,7.49,26.78,21.66,23.99,41.57c-0.72,5.13-2,10.12-3.55,15.05c-0.6,1.9-1.2,3.85-3.07,4.98
	c-1.13,2.41-2.2,4.84-3.39,7.22c-2.65,5.25-5.73,5.97-10.31,2.26c-17.52-14.2-33.64-29.79-47.11-47.98
	c-13.81-18.65-23.96-38.95-29.08-61.76C-7.26,73.51,12.03,28.8,49.56,9.48C70.9-1.51,93.04-2.9,115.72,5.07
	c2.81,0.99,5.46,2.08,8.61,0.6c2.11-0.99,4.6-0.44,6.75,0.7c3.67,1.96,7.39,3.82,10.95,5.96c5.12,3.07,6.74,9.17,4.01,14.31
	c-2.59,4.87-8.49,6.98-13.71,4.59c-3.92-1.79-7.68-3.96-11.45-6.08c-0.99-0.55-2.2-1.37-2.53-2.33
	c-3.81-11.17-14.11-10.3-22.53-11.26C54.75,6.87,21.07,36.32,13.12,74.49c-6.58,31.58,2.74,59.87,19.23,86.35
	c12.34,19.82,28.35,36.47,45.98,51.66c2.34,2.02,3.5,2.35,4.66-1.03c2.61-7.6,4.69-15.23,4.25-23.38
	c-0.55-10.1-5.77-16.8-14.95-20.45c-7.08-2.82-14.26-5.39-21.46-7.9c-20.09-7.02-28.15-32.68-26.84-46.63
	c0.23-2.41,1.49-3.92,3.23-5.33c4.42-3.6,9.44-6.2,14.45-8.81c3.77-1.97,7.44-4.35,8.91-8.38c4.97-13.65,16.1-18.14,29.01-20.26
	c3.44-0.57,6.9-1.12,10.27-1.99c7.62-1.97,10.42-6.01,9.57-13.88c-0.37-3.46-1.14-6.88-1.91-10.28c-1.23-5.43,0.58-7.97,6.18-7.96
	c15.19,0.04,27.98,6.54,39.83,15.26c8.26,6.07,15.17,13.5,20.58,22.23c1.35,2.17,2.78,2.8,5.29,2.41
	c12.35-1.92,24.65-1.54,36.42,2.85c8.47,3.16,16.28,2.17,24.09-1.56c6.58-3.14,13.04-6.57,19.75-9.4
	c6.98-2.95,14.32-4.31,21.95-2.68c3.97,0.85,7.1,2.78,8.77,6.61c4.46,10.23,7.87,20.76,9.76,31.8c2.26,13.14-3.46,22.22-14.19,28.77
	c-8.52,5.2-15.52,11.95-21.42,19.89c-6.14,8.25-7.93,17.37-5.17,27.38c1.89,6.83,4.17,13.6,3.81,21.43
	c3.28-1.77,5.07-4.16,7.09-6.23c19.65-20.12,35.92-42.42,43.95-69.8c8.82-30.09,6.22-58.6-13.03-84.37
	c-19.33-25.88-53.79-36.41-83.28-25.74c-2.49,0.9-4.09,1.93-4.99,4.73c-1.61,5-15.78,13.25-20.94,12.45
	c-4.82-0.75-8.33-3.37-9.48-8.34c-1.05-4.51,0.41-8.44,4.19-10.92c4.01-2.63,8.45-4.6,12.69-6.89c1.39-0.75,3.07-1.16,4.35-0.63
	c5.2,2.15,9.61-0.49,14.29-1.86c44.09-12.97,90.34,11.74,105.94,56.64c11.21,32.26,5.75,63.02-9.29,92.57
	c-15.33,30.12-38.34,53.77-64.53,74.57c-23.54,18.69-49.19,34.03-75.87,47.74c-3.14,1.61-5.86,1.51-8.96-0.07
	c-19.43-9.91-38.3-20.75-56.22-33.19c-6.1-4.23-5.99-7.58,0.2-11.69c15.9-10.57,29.65-23.08,37.6-40.99c1.99-4.49,5.3-4.59,9.45-0.8
	c3.18,2.86,1.33,5.94,0.02,8.63c-3.94,8.08-8.93,15.54-15.01,22.18c-4.94,5.39-10.26,10.4-16.3,14.57c-2.19,1.51-2.7,2.74-0.12,4.36
	c14.21,8.89,28.6,17.45,43.64,24.86c5.65-0.11,9.87-3.74,14.43-6.21c18.87-10.17,37.04-21.48,54.08-34.55
	c13.09-10.04,16.04-18.18,12.02-34.23c-0.85-3.38-1.78-6.74-2.49-10.16c-1.98-8.03-1.13-15.78,2.25-23.29
	c2.23-4.28,4.75-8.38,7.83-12.11c1.33-1.62,1.24-2.59-0.94-3.08c-1.46-0.33-2.89-0.77-4.23-1.46c-3.63-1.86-5.27-5.26-4.09-8.6
	c1.4-3.96,4.6-4.88,8.07-3.76c6.89,2.22,13.39,1.28,19.95-1.2c10.65-4.04,14.38-10.62,12.15-21.74c-0.33-1.63-0.72-3.24-1.12-4.86
	c-1.7-6.82-1.71-6.7-8.54-7.19c-6.35-0.46-11.32-3.51-14.93-8.76c-1.68-2.14-3.38-0.57-4.89,0.12c-4.69,2.15-9.26,4.56-13.88,6.86
	c-10.19,5.07-20.58,6.15-31.35,1.91c-8.26-3.25-16.94-3.09-25.62-2.96c-3.32,0.05-3.98,1.36-3.08,4.38
	c5.49,18.41,4.01,36.54-2.62,54.36c-3.17,8.52-7.37,16.46-14.66,22.25C153.95,170.99,151.24,174.03,146.88,173.43z"/>
<path class="st1" d="M158.02,264.09c-16.54-8.18-32.39-17.51-48.28-28.03c7.82-5.55,14.77-11.16,20.78-17.83
	c6.27-6.97,11.47-14.65,15.42-23.18c1.04-2.24,1.47-4.39,0.37-6.68c3.46-3.68,1.19-8.02,1.35-12.08c0.04-0.94-0.5-1.9-0.78-2.85
	c15.39-7.04,21.89-20.63,26.08-35.79c4.45-16.08,4.5-32.15-1.11-48.01c-0.86-2.43-0.47-3.2,2.13-3.34
	c10.02-0.52,20.01-0.54,29.51,3.14c9.94,3.86,19.51,3.02,28.93-1.39c5.86-2.74,11.65-5.66,17.42-8.6c2.24-1.14,3.78-1.15,4.22,1.76
	c-13.54,10.93-27.74,19.79-46.36,14.7c-5.48-1.5-11.1-2.21-16.71-3c-2.65-0.38-5.25-0.02-8.19,0.93c4.96,0.51,9.57-0.24,14.1,0.92
	c14.98,3.84,25.36,12.4,28.41,28.09c2.18,11.19,5.92,21.49,14.06,29.8c0.47,0.48,0.58,1.19,0.75,1.83
	c-3.22,7.74-3.91,15.73-2.37,23.95c-2.58,1.8-5.6,1.87-8.56,2.18c-17.12,1.76-31.76,8.82-44.5,20.3
	c-14.23,12.82-21.79,29-24.9,47.59c-0.55,3.31-0.38,6.62-0.51,9.94C159.22,260.39,159.66,262.48,158.02,264.09z"/>
<path class="st2" d="M151.31,80.49c-16.04,6.79-29.39,16.68-37.78,32.41c-5.4,10.13-7.85,20.87-6.23,32.25
	c2.45,17.19,12.81,26.91,31.5,30.14c-0.12,3.22-2.38,5.44-3.79,8.05c-1.64,1.78-2.64,4-4.08,5.92c-8.8,11.96-19.93,21.2-33.03,28.07
	c-1.61,0.84-3.67,2.92-5.49,0.02c3.12-9.31,6.05-18.61,5.71-28.64c-0.51-14.94-8.59-26.29-22.67-31.44
	c-7.17-2.62-14.44-5.03-21.43-8.09c-10.63-4.66-19.46-19.49-19.16-31.01c0.06-2.1,0.78-3.5,2.52-4.47c2.75-1.55,5.44-3.23,8.29-4.57
	c7.54-3.58,12.98-8.99,16.17-16.82c3.12-7.66,10.35-9.3,17.38-10.83c5.67-1.24,11.48-1.81,17-3.75
	c10.87-3.82,15.73-11.67,14.31-23.15c-0.28-2.28-0.97-4.54-0.15-7.21c16.74,4.36,30.44,13.05,40.76,26.93
	C151.98,76.33,152.71,78.38,151.31,80.49z"/>
<path class="st3" d="M130.93,189.25c-0.2-3.05,1.17-5.01,4.08-5.92C135.25,186.41,133.96,188.43,130.93,189.25z"/>
<path class="st4" d="M158.02,264.09c-1.11-28.58,9.36-51.87,32.04-69.41c13.99-10.82,30.2-15.54,47.7-16.24
	c1.07,4,2.18,7.99,3.22,12c3.44,13.33-0.98,23.68-11.78,31.85c-20.97,15.87-43.39,29.39-66.69,41.5
	C161.08,264.54,159.62,265.67,158.02,264.09z"/>
<path class="st5" d="M240.13,154.49c-8.63-6.85-12.91-16.23-15.06-26.67c-4.67-22.68-16.93-32.7-40.23-32.82
	c-1.8-0.01-5.1,1.78-5.27-1.36c-0.12-2.13,3.24-1.32,5.03-1.66c6.69-1.25,13.45-0.21,19.66,1.77c15.12,4.81,28.34,1.46,40.81-7.36
	c2.83-2,5.72-3.95,9.01-5.17c4.68,6.3,10.71,9.27,18.61,7.37c1.86-0.45,2.67,0.12,3.22,1.96c1.7,5.74,3.28,11.51,3.91,17.48
	c0.49,4.62-1.25,8.6-4.67,11.59c-8.26,7.24-17.77,10.33-28.6,7.3c-3.73-1.05-6.76-1.13-8.17,2.9c-1.44,4.12,1.3,6.18,4.73,7.34
	c2.33,0.79,4.78,1.21,7.91,1.97C246.8,144.05,243.19,149.09,240.13,154.49z"/>
<path class="st1" d="M128.03,110.35c7.58-9.97,17.83-16.01,29.35-20.35c3.47-1.31,3.72,1.28,4.31,3.07
	c4.37,13.07,4.74,26.34,1.36,39.68c-2.28,9-5.02,17.82-11.84,24.66c-11.73,6.05-21.53-0.33-26.48-10.8
	c-5.36-11.34-3.53-22.37,1.89-33.13C127.13,112.45,127.99,111.59,128.03,110.35z"/>
<path class="st6" d="M128.03,110.35c0.93,2.99-1.39,5.08-2.25,7.52c-3.89,11.05-4.46,21.83,2.3,31.97
	c5.24,7.86,10.62,9.69,20.16,7.67c0.95-0.2,1.98-0.08,2.97-0.1c-5.15,5.51-11.25,8.48-18.71,5.64c-8.98-3.41-13.2-10.8-14.43-19.86
	C116.37,130.8,120.63,120.06,128.03,110.35z"/>
<path class="st7" d="M151.31,80.49c-0.06-2.07-0.12-4.13-0.17-6.2C155.45,79.13,155.45,79.13,151.31,80.49z"/>
<path class="st8" d="M202.84,105.2c3.49,0.15,7.45,1.59,10.6,4.91c1.38,1.46,2.1,3.1,0.57,4.87c-1.56,1.8-3.41,1.84-5.31,0.48
	c-0.81-0.58-1.51-1.34-2.36-1.83c-5.53-3.19-9.38-0.98-9.38,5.38c0,2.38,0.25,5.02-3.04,5.27c-3.38,0.26-3.96-2.41-4.36-4.96
	C188.36,111.62,193.97,105.18,202.84,105.2z"/>
<path class="st9" d="M72.44,96.08c5.09,0.28,7.1,2.62,7.24,6.47c0.13,3.47-3,6.2-6.58,5.95c-3.76-0.27-5.76-2.5-5.98-6.12
	C66.92,98.96,70.08,96.01,72.44,96.08z"/>
</svg>
